<svg class="rich-terminal" viewBox="0 0 1360 782.0" xmlns="http://www.w3.org/2000/svg">
    <!-- Generated with Rich https://www.textualize.io -->
    <style>

    @font-face {
        font-family: "Fira Code";
        src: local("FiraCode-Regular"),
                url("https://cdnjs.cloudflare.com/ajax/libs/firacode/6.2.0/woff2/FiraCode-Regular.woff2") format("woff2"),
                url("https://cdnjs.cloudflare.com/ajax/libs/firacode/6.2.0/woff/FiraCode-Regular.woff") format("woff");
        font-style: normal;
        font-weight: 400;
    }
    @font-face {
        font-family: "Fira Code";
        src: local("FiraCode-Bold"),
                url("https://cdnjs.cloudflare.com/ajax/libs/firacode/6.2.0/woff2/FiraCode-Bold.woff2") format("woff2"),
                url("https://cdnjs.cloudflare.com/ajax/libs/firacode/6.2.0/woff/FiraCode-Bold.woff") format("woff");
        font-style: bold;
        font-weight: 700;
    }

    .terminal-3409117658-matrix {
        font-family: Fira Code, monospace;
        font-size: 20px;
        line-height: 24.4px;
        font-variant-east-asian: full-width;
    }

    .terminal-3409117658-title {
        font-size: 18px;
        font-weight: bold;
        font-family: arial;
    }

    .terminal-3409117658-r1 { fill: #5096a0 }
.terminal-3409117658-r2 { fill: #c5c8c6 }
.terminal-3409117658-r3 { fill: #99ffff;font-weight: bold }
.terminal-3409117658-r4 { fill: #e0e0e0 }
.terminal-3409117658-r5 { fill: #ccff99;font-weight: bold }
.terminal-3409117658-r6 { fill: #ffa500 }
.terminal-3409117658-r7 { fill: #6c6c6c }
.terminal-3409117658-r8 { fill: #4d4d4d }
.terminal-3409117658-r9 { fill: #ddedf9;font-weight: bold }
.terminal-3409117658-r10 { fill: #92c5ec;font-weight: bold }
.terminal-3409117658-r11 { fill: #999999 }
.terminal-3409117658-r12 { fill: #7aeeff }
.terminal-3409117658-r13 { fill: #808080 }
.terminal-3409117658-r14 { fill: #e2e5e6 }
.terminal-3409117658-r15 { fill: #a2acad }
    </style>

    <defs>
    <clipPath id="terminal-3409117658-clip-terminal">
      <rect x="0" y="0" width="1341.0" height="731.0" />
    </clipPath>
    <clipPath id="terminal-3409117658-line-0">
    <rect x="0" y="1.5" width="1342" height="24.65"/>
            </clipPath>
<clipPath id="terminal-3409117658-line-1">
    <rect x="0" y="25.9" width="1342" height="24.65"/>
            </clipPath>
<clipPath id="terminal-3409117658-line-2">
    <rect x="0" y="50.3" width="1342" height="24.65"/>
            </clipPath>
<clipPath id="terminal-3409117658-line-3">
    <rect x="0" y="74.7" width="1342" height="24.65"/>
            </clipPath>
<clipPath id="terminal-3409117658-line-4">
    <rect x="0" y="99.1" width="1342" height="24.65"/>
            </clipPath>
<clipPath id="terminal-3409117658-line-5">
    <rect x="0" y="123.5" width="1342" height="24.65"/>
            </clipPath>
<clipPath id="terminal-3409117658-line-6">
    <rect x="0" y="147.9" width="1342" height="24.65"/>
            </clipPath>
<clipPath id="terminal-3409117658-line-7">
    <rect x="0" y="172.3" width="1342" height="24.65"/>
            </clipPath>
<clipPath id="terminal-3409117658-line-8">
    <rect x="0" y="196.7" width="1342" height="24.65"/>
            </clipPath>
<clipPath id="terminal-3409117658-line-9">
    <rect x="0" y="221.1" width="1342" height="24.65"/>
            </clipPath>
<clipPath id="terminal-3409117658-line-10">
    <rect x="0" y="245.5" width="1342" height="24.65"/>
            </clipPath>
<clipPath id="terminal-3409117658-line-11">
    <rect x="0" y="269.9" width="1342" height="24.65"/>
            </clipPath>
<clipPath id="terminal-3409117658-line-12">
    <rect x="0" y="294.3" width="1342" height="24.65"/>
            </clipPath>
<clipPath id="terminal-3409117658-line-13">
    <rect x="0" y="318.7" width="1342" height="24.65"/>
            </clipPath>
<clipPath id="terminal-3409117658-line-14">
    <rect x="0" y="343.1" width="1342" height="24.65"/>
            </clipPath>
<clipPath id="terminal-3409117658-line-15">
    <rect x="0" y="367.5" width="1342" height="24.65"/>
            </clipPath>
<clipPath id="terminal-3409117658-line-16">
    <rect x="0" y="391.9" width="1342" height="24.65"/>
            </clipPath>
<clipPath id="terminal-3409117658-line-17">
    <rect x="0" y="416.3" width="1342" height="24.65"/>
            </clipPath>
<clipPath id="terminal-3409117658-line-18">
    <rect x="0" y="440.7" width="1342" height="24.65"/>
            </clipPath>
<clipPath id="terminal-3409117658-line-19">
    <rect x="0" y="465.1" width="1342" height="24.65"/>
            </clipPath>
<clipPath id="terminal-3409117658-line-20">
    <rect x="0" y="489.5" width="1342" height="24.65"/>
            </clipPath>
<clipPath id="terminal-3409117658-line-21">
    <rect x="0" y="513.9" width="1342" height="24.65"/>
            </clipPath>
<clipPath id="terminal-3409117658-line-22">
    <rect x="0" y="538.3" width="1342" height="24.65"/>
            </clipPath>
<clipPath id="terminal-3409117658-line-23">
    <rect x="0" y="562.7" width="1342" height="24.65"/>
            </clipPath>
<clipPath id="terminal-3409117658-line-24">
    <rect x="0" y="587.1" width="1342" height="24.65"/>
            </clipPath>
<clipPath id="terminal-3409117658-line-25">
    <rect x="0" y="611.5" width="1342" height="24.65"/>
            </clipPath>
<clipPath id="terminal-3409117658-line-26">
    <rect x="0" y="635.9" width="1342" height="24.65"/>
            </clipPath>
<clipPath id="terminal-3409117658-line-27">
    <rect x="0" y="660.3" width="1342" height="24.65"/>
            </clipPath>
<clipPath id="terminal-3409117658-line-28">
    <rect x="0" y="684.7" width="1342" height="24.65"/>
            </clipPath>
    </defs>

    <rect fill="#292929" stroke="rgba(255,255,255,0.35)" stroke-width="1" x="1" y="1" width="1358" height="780" rx="8"/><text class="terminal-3409117658-title" fill="#c5c8c6" text-anchor="middle" x="679" y="27">RhineCode</text>
            <g transform="translate(26,22)">
            <circle cx="0" cy="0" r="7" fill="#ff5f57"/>
            <circle cx="22" cy="0" r="7" fill="#febc2e"/>
            <circle cx="44" cy="0" r="7" fill="#28c840"/>
            </g>
        
    <g transform="translate(9, 41)" clip-path="url(#terminal-3409117658-clip-terminal)">
    <rect fill="#121212" x="0" y="1.5" width="12.2" height="24.65" shape-rendering="crispEdges"/><rect fill="#121212" x="12.2" y="1.5" width="1317.6" height="24.65" shape-rendering="crispEdges"/><rect fill="#121212" x="1329.8" y="1.5" width="12.2" height="24.65" shape-rendering="crispEdges"/><rect fill="#121212" x="0" y="25.9" width="12.2" height="24.65" shape-rendering="crispEdges"/><rect fill="#121212" x="12.2" y="25.9" width="12.2" height="24.65" shape-rendering="crispEdges"/><rect fill="#242f38" x="24.4" y="25.9" width="12.2" height="24.65" shape-rendering="crispEdges"/><rect fill="#242f38" x="36.6" y="25.9" width="12.2" height="24.65" shape-rendering="crispEdges"/><rect fill="#242f38" x="48.8" y="25.9" width="536.8" height="24.65" shape-rendering="crispEdges"/><rect fill="#242f38" x="585.6" y="25.9" width="719.8" height="24.65" shape-rendering="crispEdges"/><rect fill="#242f38" x="1305.4" y="25.9" width="12.2" height="24.65" shape-rendering="crispEdges"/><rect fill="#121212" x="1317.6" y="25.9" width="12.2" height="24.65" shape-rendering="crispEdges"/><rect fill="#121212" x="1329.8" y="25.9" width="12.2" height="24.65" shape-rendering="crispEdges"/><rect fill="#121212" x="0" y="50.3" width="12.2" height="24.65" shape-rendering="crispEdges"/><rect fill="#121212" x="12.2" y="50.3" width="12.2" height="24.65" shape-rendering="crispEdges"/><rect fill="#121212" x="24.4" y="50.3" width="1293.2" height="24.65" shape-rendering="crispEdges"/><rect fill="#121212" x="1317.6" y="50.3" width="12.2" height="24.65" shape-rendering="crispEdges"/><rect fill="#121212" x="1329.8" y="50.3" width="12.2" height="24.65" shape-rendering="crispEdges"/><rect fill="#121212" x="0" y="74.7" width="12.2" height="24.65" shape-rendering="crispEdges"/><rect fill="#121212" x="12.2" y="74.7" width="12.2" height="24.65" shape-rendering="crispEdges"/><rect fill="#121212" x="24.4" y="74.7" width="73.2" height="24.65" shape-rendering="crispEdges"/><rect fill="#121212" x="97.6" y="74.7" width="1220" height="24.65" shape-rendering="crispEdges"/><rect fill="#121212" x="1317.6" y="74.7" width="12.2" height="24.65" shape-rendering="crispEdges"/><rect fill="#121212" x="1329.8" y="74.7" width="12.2" height="24.65" shape-rendering="crispEdges"/><rect fill="#121212" x="0" y="99.1" width="12.2" height="24.65" shape-rendering="crispEdges"/><rect fill="#121212" x="12.2" y="99.1" width="12.2" height="24.65" shape-rendering="crispEdges"/><rect fill="#121212" x="24.4" y="99.1" width="1293.2" height="24.65" shape-rendering="crispEdges"/><rect fill="#121212" x="1317.6" y="99.1" width="12.2" height="24.65" shape-rendering="crispEdges"/><rect fill="#121212" x="1329.8" y="99.1" width="12.2" height="24.65" shape-rendering="crispEdges"/><rect fill="#121212" x="0" y="123.5" width="12.2" height="24.65" shape-rendering="crispEdges"/><rect fill="#121212" x="12.2" y="123.5" width="12.2" height="24.65" shape-rendering="crispEdges"/><rect fill="#121212" x="24.4" y="123.5" width="1293.2" height="24.65" shape-rendering="crispEdges"/><rect fill="#121212" x="1317.6" y="123.5" width="12.2" height="24.65" shape-rendering="crispEdges"/><rect fill="#121212" x="1329.8" y="123.5" width="12.2" height="24.65" shape-rendering="crispEdges"/><rect fill="#121212" x="0" y="147.9" width="12.2" height="24.65" shape-rendering="crispEdges"/><rect fill="#121212" x="12.2" y="147.9" width="12.2" height="24.65" shape-rendering="crispEdges"/><rect fill="#121212" x="24.4" y="147.9" width="1293.2" height="24.65" shape-rendering="crispEdges"/><rect fill="#121212" x="1317.6" y="147.9" width="12.2" height="24.65" shape-rendering="crispEdges"/><rect fill="#121212" x="1329.8" y="147.9" width="12.2" height="24.65" shape-rendering="crispEdges"/><rect fill="#121212" x="0" y="172.3" width="12.2" height="24.65" shape-rendering="crispEdges"/><rect fill="#121212" x="12.2" y="172.3" width="12.2" height="24.65" shape-rendering="crispEdges"/><rect fill="#121212" x="24.4" y="172.3" width="1293.2" height="24.65" shape-rendering="crispEdges"/><rect fill="#121212" x="1317.6" y="172.3" width="12.2" height="24.65" shape-rendering="crispEdges"/><rect fill="#121212" x="1329.8" y="172.3" width="12.2" height="24.65" shape-rendering="crispEdges"/><rect fill="#121212" x="0" y="196.7" width="12.2" height="24.65" shape-rendering="crispEdges"/><rect fill="#121212" x="12.2" y="196.7" width="12.2" height="24.65" shape-rendering="crispEdges"/><rect fill="#121212" x="24.4" y="196.7" width="1293.2" height="24.65" shape-rendering="crispEdges"/><rect fill="#121212" x="1317.6" y="196.7" width="12.2" height="24.65" shape-rendering="crispEdges"/><rect fill="#121212" x="1329.8" y="196.7" width="12.2" height="24.65" shape-rendering="crispEdges"/><rect fill="#121212" x="0" y="221.1" width="12.2" height="24.65" shape-rendering="crispEdges"/><rect fill="#121212" x="12.2" y="221.1" width="12.2" height="24.65" shape-rendering="crispEdges"/><rect fill="#121212" x="24.4" y="221.1" width="1293.2" height="24.65" shape-rendering="crispEdges"/><rect fill="#121212" x="1317.6" y="221.1" width="12.2" height="24.65" shape-rendering="crispEdges"/><rect fill="#121212" x="1329.8" y="221.1" width="12.2" height="24.65" shape-rendering="crispEdges"/><rect fill="#121212" x="0" y="245.5" width="12.2" height="24.65" shape-rendering="crispEdges"/><rect fill="#121212" x="12.2" y="245.5" width="12.2" height="24.65" shape-rendering="crispEdges"/><rect fill="#121212" x="24.4" y="245.5" width="1293.2" height="24.65" shape-rendering="crispEdges"/><rect fill="#121212" x="1317.6" y="245.5" width="12.2" height="24.65" shape-rendering="crispEdges"/><rect fill="#121212" x="1329.8" y="245.5" width="12.2" height="24.65" shape-rendering="crispEdges"/><rect fill="#121212" x="0" y="269.9" width="12.2" height="24.65" shape-rendering="crispEdges"/><rect fill="#121212" x="12.2" y="269.9" width="12.2" height="24.65" shape-rendering="crispEdges"/><rect fill="#121212" x="24.4" y="269.9" width="1293.2" height="24.65" shape-rendering="crispEdges"/><rect fill="#121212" x="1317.6" y="269.9" width="12.2" height="24.65" shape-rendering="crispEdges"/><rect fill="#121212" x="1329.8" y="269.9" width="12.2" height="24.65" shape-rendering="crispEdges"/><rect fill="#121212" x="0" y="294.3" width="12.2" height="24.65" shape-rendering="crispEdges"/><rect fill="#121212" x="12.2" y="294.3" width="12.2" height="24.65" shape-rendering="crispEdges"/><rect fill="#121212" x="24.4" y="294.3" width="1293.2" height="24.65" shape-rendering="crispEdges"/><rect fill="#121212" x="1317.6" y="294.3" width="12.2" height="24.65" shape-rendering="crispEdges"/><rect fill="#121212" x="1329.8" y="294.3" width="12.2" height="24.65" shape-rendering="crispEdges"/><rect fill="#121212" x="0" y="318.7" width="12.2" height="24.65" shape-rendering="crispEdges"/><rect fill="#121212" x="12.2" y="318.7" width="12.2" height="24.65" shape-rendering="crispEdges"/><rect fill="#121212" x="24.4" y="318.7" width="1293.2" height="24.65" shape-rendering="crispEdges"/><rect fill="#121212" x="1317.6" y="318.7" width="12.2" height="24.65" shape-rendering="crispEdges"/><rect fill="#121212" x="1329.8" y="318.7" width="12.2" height="24.65" shape-rendering="crispEdges"/><rect fill="#121212" x="0" y="343.1" width="12.2" height="24.65" shape-rendering="crispEdges"/><rect fill="#121212" x="12.2" y="343.1" width="12.2" height="24.65" shape-rendering="crispEdges"/><rect fill="#121212" x="24.4" y="343.1" width="1293.2" height="24.65" shape-rendering="crispEdges"/><rect fill="#121212" x="1317.6" y="343.1" width="12.2" height="24.65" shape-rendering="crispEdges"/><rect fill="#121212" x="1329.8" y="343.1" width="12.2" height="24.65" shape-rendering="crispEdges"/><rect fill="#121212" x="0" y="367.5" width="12.2" height="24.65" shape-rendering="crispEdges"/><rect fill="#121212" x="12.2" y="367.5" width="12.2" height="24.65" shape-rendering="crispEdges"/><rect fill="#121212" x="24.4" y="367.5" width="1293.2" height="24.65" shape-rendering="crispEdges"/><rect fill="#121212" x="1317.6" y="367.5" width="12.2" height="24.65" shape-rendering="crispEdges"/><rect fill="#121212" x="1329.8" y="367.5" width="12.2" height="24.65" shape-rendering="crispEdges"/><rect fill="#121212" x="0" y="391.9" width="12.2" height="24.65" shape-rendering="crispEdges"/><rect fill="#121212" x="12.2" y="391.9" width="12.2" height="24.65" shape-rendering="crispEdges"/><rect fill="#121212" x="24.4" y="391.9" width="1293.2" height="24.65" shape-rendering="crispEdges"/><rect fill="#121212" x="1317.6" y="391.9" width="12.2" height="24.65" shape-rendering="crispEdges"/><rect fill="#121212" x="1329.8" y="391.9" width="12.2" height="24.65" shape-rendering="crispEdges"/><rect fill="#121212" x="0" y="416.3" width="12.2" height="24.65" shape-rendering="crispEdges"/><rect fill="#121212" x="12.2" y="416.3" width="12.2" height="24.65" shape-rendering="crispEdges"/><rect fill="#121212" x="24.4" y="416.3" width="1293.2" height="24.65" shape-rendering="crispEdges"/><rect fill="#121212" x="1317.6" y="416.3" width="12.2" height="24.65" shape-rendering="crispEdges"/><rect fill="#121212" x="1329.8" y="416.3" width="12.2" height="24.65" shape-rendering="crispEdges"/><rect fill="#121212" x="0" y="440.7" width="12.2" height="24.65" shape-rendering="crispEdges"/><rect fill="#121212" x="12.2" y="440.7" width="12.2" height="24.65" shape-rendering="crispEdges"/><rect fill="#121212" x="24.4" y="440.7" width="1293.2" height="24.65" shape-rendering="crispEdges"/><rect fill="#121212" x="1317.6" y="440.7" width="12.2" height="24.65" shape-rendering="crispEdges"/><rect fill="#121212" x="1329.8" y="440.7" width="12.2" height="24.65" shape-rendering="crispEdges"/><rect fill="#121212" x="0" y="465.1" width="12.2" height="24.65" shape-rendering="crispEdges"/><rect fill="#121212" x="12.2" y="465.1" width="12.2" height="24.65" shape-rendering="crispEdges"/><rect fill="#121212" x="24.4" y="465.1" width="463.6" height="24.65" shape-rendering="crispEdges"/><rect fill="#121212" x="488" y="465.1" width="24.4" height="24.65" shape-rendering="crispEdges"/><rect fill="#121212" x="512.4" y="465.1" width="671" height="24.65" shape-rendering="crispEdges"/><rect fill="#121212" x="1183.4" y="465.1" width="134.2" height="24.65" shape-rendering="crispEdges"/><rect fill="#121212" x="1317.6" y="465.1" width="12.2" height="24.65" shape-rendering="crispEdges"/><rect fill="#121212" x="1329.8" y="465.1" width="12.2" height="24.65" shape-rendering="crispEdges"/><rect fill="#121212" x="0" y="489.5" width="12.2" height="24.65" shape-rendering="crispEdges"/><rect fill="#121212" x="12.2" y="489.5" width="12.2" height="24.65" shape-rendering="crispEdges"/><rect fill="#121212" x="24.4" y="489.5" width="719.8" height="24.65" shape-rendering="crispEdges"/><rect fill="#121212" x="744.2" y="489.5" width="573.4" height="24.65" shape-rendering="crispEdges"/><rect fill="#121212" x="1317.6" y="489.5" width="12.2" height="24.65" shape-rendering="crispEdges"/><rect fill="#121212" x="1329.8" y="489.5" width="12.2" height="24.65" shape-rendering="crispEdges"/><rect fill="#121212" x="0" y="513.9" width="12.2" height="24.65" shape-rendering="crispEdges"/><rect fill="#121212" x="12.2" y="513.9" width="12.2" height="24.65" shape-rendering="crispEdges"/><rect fill="#0178d4" x="24.4" y="513.9" width="207.4" height="24.65" shape-rendering="crispEdges"/><rect fill="#0178d4" x="231.8" y="513.9" width="122" height="24.65" shape-rendering="crispEdges"/><rect fill="#0178d4" x="353.8" y="513.9" width="963.8" height="24.65" shape-rendering="crispEdges"/><rect fill="#121212" x="1317.6" y="513.9" width="12.2" height="24.65" shape-rendering="crispEdges"/><rect fill="#121212" x="1329.8" y="513.9" width="12.2" height="24.65" shape-rendering="crispEdges"/><rect fill="#121212" x="0" y="538.3" width="12.2" height="24.65" shape-rendering="crispEdges"/><rect fill="#121212" x="12.2" y="538.3" width="12.2" height="24.65" shape-rendering="crispEdges"/><rect fill="#121212" x="24.4" y="538.3" width="207.4" height="24.65" shape-rendering="crispEdges"/><rect fill="#121212" x="231.8" y="538.3" width="439.2" height="24.65" shape-rendering="crispEdges"/><rect fill="#121212" x="671" y="538.3" width="646.6" height="24.65" shape-rendering="crispEdges"/><rect fill="#121212" x="1317.6" y="538.3" width="12.2" height="24.65" shape-rendering="crispEdges"/><rect fill="#121212" x="1329.8" y="538.3" width="12.2" height="24.65" shape-rendering="crispEdges"/><rect fill="#121212" x="0" y="562.7" width="12.2" height="24.65" shape-rendering="crispEdges"/><rect fill="#121212" x="12.2" y="562.7" width="12.2" height="24.65" shape-rendering="crispEdges"/><rect fill="#121212" x="24.4" y="562.7" width="207.4" height="24.65" shape-rendering="crispEdges"/><rect fill="#121212" x="231.8" y="562.7" width="256.2" height="24.65" shape-rendering="crispEdges"/><rect fill="#121212" x="488" y="562.7" width="829.6" height="24.65" shape-rendering="crispEdges"/><rect fill="#121212" x="1317.6" y="562.7" width="12.2" height="24.65" shape-rendering="crispEdges"/><rect fill="#121212" x="1329.8" y="562.7" width="12.2" height="24.65" shape-rendering="crispEdges"/><rect fill="#121212" x="0" y="587.1" width="12.2" height="24.65" shape-rendering="crispEdges"/><rect fill="#121212" x="12.2" y="587.1" width="1317.6" height="24.65" shape-rendering="crispEdges"/><rect fill="#121212" x="1329.8" y="587.1" width="12.2" height="24.65" shape-rendering="crispEdges"/><rect fill="#121212" x="0" y="611.5" width="12.2" height="24.65" shape-rendering="crispEdges"/><rect fill="#121212" x="12.2" y="611.5" width="12.2" height="24.65" shape-rendering="crispEdges"/><rect fill="#121212" x="24.4" y="611.5" width="109.8" height="24.65" shape-rendering="crispEdges"/><rect fill="#121212" x="134.2" y="611.5" width="61" height="24.65" shape-rendering="crispEdges"/><rect fill="#121212" x="195.2" y="611.5" width="1134.6" height="24.65" shape-rendering="crispEdges"/><rect fill="#121212" x="1329.8" y="611.5" width="12.2" height="24.65" shape-rendering="crispEdges"/><rect fill="#121212" x="0" y="635.9" width="12.2" height="24.65" shape-rendering="crispEdges"/><rect fill="#121212" x="12.2" y="635.9" width="1317.6" height="24.65" shape-rendering="crispEdges"/><rect fill="#121212" x="1329.8" y="635.9" width="12.2" height="24.65" shape-rendering="crispEdges"/><rect fill="#121212" x="0" y="660.3" width="12.2" height="24.65" shape-rendering="crispEdges"/><rect fill="#121212" x="12.2" y="660.3" width="12.2" height="24.65" shape-rendering="crispEdges"/><rect fill="#121212" x="24.4" y="660.3" width="1073.6" height="24.65" shape-rendering="crispEdges"/><rect fill="#121212" x="1098" y="660.3" width="219.6" height="24.65" shape-rendering="crispEdges"/><rect fill="#121212" x="1317.6" y="660.3" width="12.2" height="24.65" shape-rendering="crispEdges"/><rect fill="#121212" x="1329.8" y="660.3" width="12.2" height="24.65" shape-rendering="crispEdges"/><rect fill="#121212" x="0" y="684.7" width="12.2" height="24.65" shape-rendering="crispEdges"/><rect fill="#121212" x="12.2" y="684.7" width="1317.6" height="24.65" shape-rendering="crispEdges"/><rect fill="#121212" x="1329.8" y="684.7" width="12.2" height="24.65" shape-rendering="crispEdges"/><rect fill="#263e41" x="0" y="709.1" width="439.2" height="24.65" shape-rendering="crispEdges"/><rect fill="#263e41" x="439.2" y="709.1" width="549" height="24.65" shape-rendering="crispEdges"/><rect fill="#263e41" x="988.2" y="709.1" width="73.2" height="24.65" shape-rendering="crispEdges"/><rect fill="#263e41" x="1061.4" y="709.1" width="280.6" height="24.65" shape-rendering="crispEdges"/>
    <g class="terminal-3409117658-matrix">
    <text class="terminal-3409117658-r1" x="0" y="20" textLength="12.2" clip-path="url(#terminal-3409117658-line-0)">┌</text><text class="terminal-3409117658-r1" x="12.2" y="20" textLength="1317.6" clip-path="url(#terminal-3409117658-line-0)">────────────────────────────────────────────────────────────────────────────────────────────────────────────</text><text class="terminal-3409117658-r1" x="1329.8" y="20" textLength="12.2" clip-path="url(#terminal-3409117658-line-0)">┐</text><text class="terminal-3409117658-r2" x="1342" y="20" textLength="12.2" clip-path="url(#terminal-3409117658-line-0)">
</text><text class="terminal-3409117658-r1" x="0" y="44.4" textLength="12.2" clip-path="url(#terminal-3409117658-line-1)">│</text><text class="terminal-3409117658-r3" x="36.6" y="44.4" textLength="12.2" clip-path="url(#terminal-3409117658-line-1)">◈</text><text class="terminal-3409117658-r4" x="48.8" y="44.4" textLength="305" clip-path="url(#terminal-3409117658-line-1)">&#160;给项目加一条&#160;Hook：每次写完文件自动跑格式化</text><text class="terminal-3409117658-r1" x="1329.8" y="44.4" textLength="12.2" clip-path="url(#terminal-3409117658-line-1)">│</text><text class="terminal-3409117658-r2" x="1342" y="44.4" textLength="12.2" clip-path="url(#terminal-3409117658-line-1)">
</text><text class="terminal-3409117658-r1" x="0" y="68.8" textLength="12.2" clip-path="url(#terminal-3409117658-line-2)">│</text><text class="terminal-3409117658-r1" x="1329.8" y="68.8" textLength="12.2" clip-path="url(#terminal-3409117658-line-2)">│</text><text class="terminal-3409117658-r2" x="1342" y="68.8" textLength="12.2" clip-path="url(#terminal-3409117658-line-2)">
</text><text class="terminal-3409117658-r1" x="0" y="93.2" textLength="12.2" clip-path="url(#terminal-3409117658-line-3)">│</text><text class="terminal-3409117658-r5" x="24.4" y="93.2" textLength="73.2" clip-path="url(#terminal-3409117658-line-3)">Rhine&#160;</text><text class="terminal-3409117658-r1" x="1329.8" y="93.2" textLength="12.2" clip-path="url(#terminal-3409117658-line-3)">│</text><text class="terminal-3409117658-r2" x="1342" y="93.2" textLength="12.2" clip-path="url(#terminal-3409117658-line-3)">
</text><text class="terminal-3409117658-r1" x="0" y="117.6" textLength="12.2" clip-path="url(#terminal-3409117658-line-4)">│</text><text class="terminal-3409117658-r4" x="24.4" y="117.6" textLength="963.8" clip-path="url(#terminal-3409117658-line-4)">我给项目加一条&#160;Hook&#160;规则，让每次写文件之后自动跑一遍格式化。&#160;&#160;&#160;&#160;&#160;&#160;&#160;&#160;&#160;&#160;&#160;&#160;&#160;&#160;&#160;&#160;&#160;&#160;&#160;&#160;&#160;&#160;&#160;&#160;&#160;&#160;&#160;&#160;&#160;&#160;&#160;&#160;&#160;&#160;&#160;&#160;&#160;&#160;&#160;&#160;&#160;&#160;&#160;&#160;&#160;&#160;</text><text class="terminal-3409117658-r1" x="1329.8" y="117.6" textLength="12.2" clip-path="url(#terminal-3409117658-line-4)">│</text><text class="terminal-3409117658-r2" x="1342" y="117.6" textLength="12.2" clip-path="url(#terminal-3409117658-line-4)">
</text><text class="terminal-3409117658-r1" x="0" y="142" textLength="12.2" clip-path="url(#terminal-3409117658-line-5)">│</text><text class="terminal-3409117658-r1" x="1329.8" y="142" textLength="12.2" clip-path="url(#terminal-3409117658-line-5)">│</text><text class="terminal-3409117658-r2" x="1342" y="142" textLength="12.2" clip-path="url(#terminal-3409117658-line-5)">
</text><text class="terminal-3409117658-r1" x="0" y="166.4" textLength="12.2" clip-path="url(#terminal-3409117658-line-6)">│</text><text class="terminal-3409117658-r1" x="1329.8" y="166.4" textLength="12.2" clip-path="url(#terminal-3409117658-line-6)">│</text><text class="terminal-3409117658-r2" x="1342" y="166.4" textLength="12.2" clip-path="url(#terminal-3409117658-line-6)">
</text><text class="terminal-3409117658-r1" x="0" y="190.8" textLength="12.2" clip-path="url(#terminal-3409117658-line-7)">│</text><text class="terminal-3409117658-r1" x="1329.8" y="190.8" textLength="12.2" clip-path="url(#terminal-3409117658-line-7)">│</text><text class="terminal-3409117658-r2" x="1342" y="190.8" textLength="12.2" clip-path="url(#terminal-3409117658-line-7)">
</text><text class="terminal-3409117658-r1" x="0" y="215.2" textLength="12.2" clip-path="url(#terminal-3409117658-line-8)">│</text><text class="terminal-3409117658-r1" x="1329.8" y="215.2" textLength="12.2" clip-path="url(#terminal-3409117658-line-8)">│</text><text class="terminal-3409117658-r2" x="1342" y="215.2" textLength="12.2" clip-path="url(#terminal-3409117658-line-8)">
</text><text class="terminal-3409117658-r1" x="0" y="239.6" textLength="12.2" clip-path="url(#terminal-3409117658-line-9)">│</text><text class="terminal-3409117658-r1" x="1329.8" y="239.6" textLength="12.2" clip-path="url(#terminal-3409117658-line-9)">│</text><text class="terminal-3409117658-r2" x="1342" y="239.6" textLength="12.2" clip-path="url(#terminal-3409117658-line-9)">
</text><text class="terminal-3409117658-r1" x="0" y="264" textLength="12.2" clip-path="url(#terminal-3409117658-line-10)">│</text><text class="terminal-3409117658-r1" x="1329.8" y="264" textLength="12.2" clip-path="url(#terminal-3409117658-line-10)">│</text><text class="terminal-3409117658-r2" x="1342" y="264" textLength="12.2" clip-path="url(#terminal-3409117658-line-10)">
</text><text class="terminal-3409117658-r1" x="0" y="288.4" textLength="12.2" clip-path="url(#terminal-3409117658-line-11)">│</text><text class="terminal-3409117658-r1" x="1329.8" y="288.4" textLength="12.2" clip-path="url(#terminal-3409117658-line-11)">│</text><text class="terminal-3409117658-r2" x="1342" y="288.4" textLength="12.2" clip-path="url(#terminal-3409117658-line-11)">
</text><text class="terminal-3409117658-r1" x="0" y="312.8" textLength="12.2" clip-path="url(#terminal-3409117658-line-12)">│</text><text class="terminal-3409117658-r1" x="1329.8" y="312.8" textLength="12.2" clip-path="url(#terminal-3409117658-line-12)">│</text><text class="terminal-3409117658-r2" x="1342" y="312.8" textLength="12.2" clip-path="url(#terminal-3409117658-line-12)">
</text><text class="terminal-3409117658-r1" x="0" y="337.2" textLength="12.2" clip-path="url(#terminal-3409117658-line-13)">│</text><text class="terminal-3409117658-r1" x="1329.8" y="337.2" textLength="12.2" clip-path="url(#terminal-3409117658-line-13)">│</text><text class="terminal-3409117658-r2" x="1342" y="337.2" textLength="12.2" clip-path="url(#terminal-3409117658-line-13)">
</text><text class="terminal-3409117658-r1" x="0" y="361.6" textLength="12.2" clip-path="url(#terminal-3409117658-line-14)">│</text><text class="terminal-3409117658-r1" x="1329.8" y="361.6" textLength="12.2" clip-path="url(#terminal-3409117658-line-14)">│</text><text class="terminal-3409117658-r2" x="1342" y="361.6" textLength="12.2" clip-path="url(#terminal-3409117658-line-14)">
</text><text class="terminal-3409117658-r1" x="0" y="386" textLength="12.2" clip-path="url(#terminal-3409117658-line-15)">│</text><text class="terminal-3409117658-r1" x="1329.8" y="386" textLength="12.2" clip-path="url(#terminal-3409117658-line-15)">│</text><text class="terminal-3409117658-r2" x="1342" y="386" textLength="12.2" clip-path="url(#terminal-3409117658-line-15)">
</text><text class="terminal-3409117658-r1" x="0" y="410.4" textLength="12.2" clip-path="url(#terminal-3409117658-line-16)">│</text><text class="terminal-3409117658-r1" x="1329.8" y="410.4" textLength="12.2" clip-path="url(#terminal-3409117658-line-16)">│</text><text class="terminal-3409117658-r2" x="1342" y="410.4" textLength="12.2" clip-path="url(#terminal-3409117658-line-16)">
</text><text class="terminal-3409117658-r1" x="0" y="434.8" textLength="12.2" clip-path="url(#terminal-3409117658-line-17)">│</text><text class="terminal-3409117658-r1" x="1329.8" y="434.8" textLength="12.2" clip-path="url(#terminal-3409117658-line-17)">│</text><text class="terminal-3409117658-r2" x="1342" y="434.8" textLength="12.2" clip-path="url(#terminal-3409117658-line-17)">
</text><text class="terminal-3409117658-r1" x="0" y="459.2" textLength="12.2" clip-path="url(#terminal-3409117658-line-18)">│</text><text class="terminal-3409117658-r1" x="12.2" y="459.2" textLength="12.2" clip-path="url(#terminal-3409117658-line-18)">▔</text><text class="terminal-3409117658-r1" x="24.4" y="459.2" textLength="1293.2" clip-path="url(#terminal-3409117658-line-18)">▔▔▔▔▔▔▔▔▔▔▔▔▔▔▔▔▔▔▔▔▔▔▔▔▔▔▔▔▔▔▔▔▔▔▔▔▔▔▔▔▔▔▔▔▔▔▔▔▔▔▔▔▔▔▔▔▔▔▔▔▔▔▔▔▔▔▔▔▔▔▔▔▔▔▔▔▔▔▔▔▔▔▔▔▔▔▔▔▔▔▔▔▔▔▔▔▔▔▔▔▔▔▔▔▔▔</text><text class="terminal-3409117658-r1" x="1317.6" y="459.2" textLength="12.2" clip-path="url(#terminal-3409117658-line-18)">▔</text><text class="terminal-3409117658-r1" x="1329.8" y="459.2" textLength="12.2" clip-path="url(#terminal-3409117658-line-18)">│</text><text class="terminal-3409117658-r2" x="1342" y="459.2" textLength="12.2" clip-path="url(#terminal-3409117658-line-18)">
</text><text class="terminal-3409117658-r1" x="0" y="483.6" textLength="12.2" clip-path="url(#terminal-3409117658-line-19)">│</text><text class="terminal-3409117658-r6" x="24.4" y="483.6" textLength="414.8" clip-path="url(#terminal-3409117658-line-19)">确认执行&#160;&#160;Write(.rhinecode/hooks.yaml)</text><text class="terminal-3409117658-r8" x="512.4" y="483.6" textLength="549" clip-path="url(#terminal-3409117658-line-19)">·&#160;保护路径：写入&#160;.rhinecode/hooks.yaml&#160;会改变&#160;RhineCode</text><text class="terminal-3409117658-r1" x="1329.8" y="483.6" textLength="12.2" clip-path="url(#terminal-3409117658-line-19)">│</text><text class="terminal-3409117658-r2" x="1342" y="483.6" textLength="12.2" clip-path="url(#terminal-3409117658-line-19)">
</text><text class="terminal-3409117658-r1" x="0" y="508" textLength="12.2" clip-path="url(#terminal-3409117658-line-20)">│</text><text class="terminal-3409117658-r8" x="24.4" y="508" textLength="390.4" clip-path="url(#terminal-3409117658-line-20)">以后的行为（Hook&#160;动作会直接执行，不经权限管线），需要你过目</text><text class="terminal-3409117658-r1" x="1329.8" y="508" textLength="12.2" clip-path="url(#terminal-3409117658-line-20)">│</text><text class="terminal-3409117658-r2" x="1342" y="508" textLength="12.2" clip-path="url(#terminal-3409117658-line-20)">
</text><text class="terminal-3409117658-r1" x="0" y="532.4" textLength="12.2" clip-path="url(#terminal-3409117658-line-21)">│</text><text class="terminal-3409117658-r9" x="24.4" y="532.4" textLength="158.6" clip-path="url(#terminal-3409117658-line-21)">&gt;&#160;1.&#160;本次放行&#160;&#160;&#160;&#160;</text><text class="terminal-3409117658-r10" x="231.8" y="532.4" textLength="61" clip-path="url(#terminal-3409117658-line-21)">仅执行本次</text><text class="terminal-3409117658-r1" x="1329.8" y="532.4" textLength="12.2" clip-path="url(#terminal-3409117658-line-21)">│</text><text class="terminal-3409117658-r2" x="1342" y="532.4" textLength="12.2" clip-path="url(#terminal-3409117658-line-21)">
</text><text class="terminal-3409117658-r1" x="0" y="556.8" textLength="12.2" clip-path="url(#terminal-3409117658-line-22)">│</text><text class="terminal-3409117658-r4" x="24.4" y="556.8" textLength="146.4" clip-path="url(#terminal-3409117658-line-22)">&#160;&#160;2.&#160;本会话放行&#160;&#160;</text><text class="terminal-3409117658-r11" x="231.8" y="556.8" textLength="219.6" clip-path="url(#terminal-3409117658-line-22)">本会话内对该文件不再询问，不写入配置</text><text class="terminal-3409117658-r1" x="1329.8" y="556.8" textLength="12.2" clip-path="url(#terminal-3409117658-line-22)">│</text><text class="terminal-3409117658-r2" x="1342" y="556.8" textLength="12.2" clip-path="url(#terminal-3409117658-line-22)">
</text><text class="terminal-3409117658-r1" x="0" y="581.2" textLength="12.2" clip-path="url(#terminal-3409117658-line-23)">│</text><text class="terminal-3409117658-r4" x="24.4" y="581.2" textLength="183" clip-path="url(#terminal-3409117658-line-23)">&#160;&#160;3.&#160;拒绝&#160;&#160;&#160;&#160;&#160;&#160;&#160;&#160;</text><text class="terminal-3409117658-r11" x="231.8" y="581.2" textLength="146.4" clip-path="url(#terminal-3409117658-line-23)">让模型据此调整（Esc）</text><text class="terminal-3409117658-r1" x="1329.8" y="581.2" textLength="12.2" clip-path="url(#terminal-3409117658-line-23)">│</text><text class="terminal-3409117658-r2" x="1342" y="581.2" textLength="12.2" clip-path="url(#terminal-3409117658-line-23)">
</text><text class="terminal-3409117658-r1" x="0" y="605.6" textLength="12.2" clip-path="url(#terminal-3409117658-line-24)">└</text><text class="terminal-3409117658-r1" x="12.2" y="605.6" textLength="1317.6" clip-path="url(#terminal-3409117658-line-24)">────────────────────────────────────────────────────────────────────────────────────────────────────────────</text><text class="terminal-3409117658-r1" x="1329.8" y="605.6" textLength="12.2" clip-path="url(#terminal-3409117658-line-24)">┘</text><text class="terminal-3409117658-r2" x="1342" y="605.6" textLength="12.2" clip-path="url(#terminal-3409117658-line-24)">
</text><text class="terminal-3409117658-r12" x="12.2" y="630" textLength="12.2" clip-path="url(#terminal-3409117658-line-25)">◆</text><text class="terminal-3409117658-r4" x="24.4" y="630" textLength="61" clip-path="url(#terminal-3409117658-line-25)">&#160;等待确认</text><text class="terminal-3409117658-r13" x="134.2" y="630" textLength="61" clip-path="url(#terminal-3409117658-line-25)">&#160;(0s)</text><text class="terminal-3409117658-r2" x="1342" y="630" textLength="12.2" clip-path="url(#terminal-3409117658-line-25)">
</text><text class="terminal-3409117658-r1" x="0" y="654.4" textLength="12.2" clip-path="url(#terminal-3409117658-line-26)">┌</text><text class="terminal-3409117658-r1" x="12.2" y="654.4" textLength="1317.6" clip-path="url(#terminal-3409117658-line-26)">────────────────────────────────────────────────────────────────────────────────────────────────────────────</text><text class="terminal-3409117658-r1" x="1329.8" y="654.4" textLength="12.2" clip-path="url(#terminal-3409117658-line-26)">┐</text><text class="terminal-3409117658-r2" x="1342" y="654.4" textLength="12.2" clip-path="url(#terminal-3409117658-line-26)">
</text><text class="terminal-3409117658-r1" x="0" y="678.8" textLength="12.2" clip-path="url(#terminal-3409117658-line-27)">│</text><text class="terminal-3409117658-r7" x="24.4" y="678.8" textLength="695.4" clip-path="url(#terminal-3409117658-line-27)">输入消息，/&#160;查看命令，Tab&#160;补全，Ctrl+O&#160;展开详情，运行中按&#160;Esc&#160;取消，连按两次&#160;Ctrl+C&#160;退出</text><text class="terminal-3409117658-r1" x="1329.8" y="678.8" textLength="12.2" clip-path="url(#terminal-3409117658-line-27)">│</text><text class="terminal-3409117658-r2" x="1342" y="678.8" textLength="12.2" clip-path="url(#terminal-3409117658-line-27)">
</text><text class="terminal-3409117658-r1" x="0" y="703.2" textLength="12.2" clip-path="url(#terminal-3409117658-line-28)">└</text><text class="terminal-3409117658-r1" x="12.2" y="703.2" textLength="1317.6" clip-path="url(#terminal-3409117658-line-28)">────────────────────────────────────────────────────────────────────────────────────────────────────────────</text><text class="terminal-3409117658-r1" x="1329.8" y="703.2" textLength="12.2" clip-path="url(#terminal-3409117658-line-28)">┘</text><text class="terminal-3409117658-r2" x="1342" y="703.2" textLength="12.2" clip-path="url(#terminal-3409117658-line-28)">
</text><text class="terminal-3409117658-r14" x="439.2" y="727.6" textLength="463.6" clip-path="url(#terminal-3409117658-line-29)">&#160;[deepseek]&#160;deepseek-chat&#160;|&#160;思考模式：关闭&#160;|&#160;</text><text class="terminal-3409117658-r15" x="988.2" y="727.6" textLength="73.2" clip-path="url(#terminal-3409117658-line-29)">[AUTO]</text><text class="terminal-3409117658-r14" x="1061.4" y="727.6" textLength="231.8" clip-path="url(#terminal-3409117658-line-29)">&#160;|&#160;上下文：0%&#160;·&#160;12/64K&#160;</text>
    </g>
    </g>
</svg>
