<svg class="rich-terminal" viewBox="0 0 1360 782.0" xmlns="http://www.w3.org/2000/svg">
    <!-- Generated with Rich https://www.textualize.io -->
    <style>

    @font-face {
        font-family: "Fira Code";
        src: local("FiraCode-Regular"),
                url("https://cdnjs.cloudflare.com/ajax/libs/firacode/6.2.0/woff2/FiraCode-Regular.woff2") format("woff2"),
                url("https://cdnjs.cloudflare.com/ajax/libs/firacode/6.2.0/woff/FiraCode-Regular.woff") format("woff");
        font-style: normal;
        font-weight: 400;
    }
    @font-face {
        font-family: "Fira Code";
        src: local("FiraCode-Bold"),
                url("https://cdnjs.cloudflare.com/ajax/libs/firacode/6.2.0/woff2/FiraCode-Bold.woff2") format("woff2"),
                url("https://cdnjs.cloudflare.com/ajax/libs/firacode/6.2.0/woff/FiraCode-Bold.woff") format("woff");
        font-style: bold;
        font-weight: 700;
    }

    .terminal-1511736119-matrix {
        font-family: Fira Code, monospace;
        font-size: 20px;
        line-height: 24.4px;
        font-variant-east-asian: full-width;
    }

    .terminal-1511736119-title {
        font-size: 18px;
        font-weight: bold;
        font-family: arial;
    }

    .terminal-1511736119-r1 { fill: #5096a0 }
.terminal-1511736119-r2 { fill: #c5c8c6 }
.terminal-1511736119-r3 { fill: #5fd75f }
.terminal-1511736119-r4 { fill: #e0e0e0 }
.terminal-1511736119-r5 { fill: #808080 }
.terminal-1511736119-r6 { fill: #ccff99;font-weight: bold }
.terminal-1511736119-r7 { fill: #121212 }
.terminal-1511736119-r8 { fill: #000000 }
.terminal-1511736119-r9 { fill: #545454 }
.terminal-1511736119-r10 { fill: #ffa500 }
.terminal-1511736119-r11 { fill: #7aeeff }
.terminal-1511736119-r12 { fill: #6c6c6c }
.terminal-1511736119-r13 { fill: #e2e5e6 }
.terminal-1511736119-r14 { fill: #a2acad }
    </style>

    <defs>
    <clipPath id="terminal-1511736119-clip-terminal">
      <rect x="0" y="0" width="1341.0" height="731.0" />
    </clipPath>
    <clipPath id="terminal-1511736119-line-0">
    <rect x="0" y="1.5" width="1342" height="24.65"/>
            </clipPath>
<clipPath id="terminal-1511736119-line-1">
    <rect x="0" y="25.9" width="1342" height="24.65"/>
            </clipPath>
<clipPath id="terminal-1511736119-line-2">
    <rect x="0" y="50.3" width="1342" height="24.65"/>
            </clipPath>
<clipPath id="terminal-1511736119-line-3">
    <rect x="0" y="74.7" width="1342" height="24.65"/>
            </clipPath>
<clipPath id="terminal-1511736119-line-4">
    <rect x="0" y="99.1" width="1342" height="24.65"/>
            </clipPath>
<clipPath id="terminal-1511736119-line-5">
    <rect x="0" y="123.5" width="1342" height="24.65"/>
            </clipPath>
<clipPath id="terminal-1511736119-line-6">
    <rect x="0" y="147.9" width="1342" height="24.65"/>
            </clipPath>
<clipPath id="terminal-1511736119-line-7">
    <rect x="0" y="172.3" width="1342" height="24.65"/>
            </clipPath>
<clipPath id="terminal-1511736119-line-8">
    <rect x="0" y="196.7" width="1342" height="24.65"/>
            </clipPath>
<clipPath id="terminal-1511736119-line-9">
    <rect x="0" y="221.1" width="1342" height="24.65"/>
            </clipPath>
<clipPath id="terminal-1511736119-line-10">
    <rect x="0" y="245.5" width="1342" height="24.65"/>
            </clipPath>
<clipPath id="terminal-1511736119-line-11">
    <rect x="0" y="269.9" width="1342" height="24.65"/>
            </clipPath>
<clipPath id="terminal-1511736119-line-12">
    <rect x="0" y="294.3" width="1342" height="24.65"/>
            </clipPath>
<clipPath id="terminal-1511736119-line-13">
    <rect x="0" y="318.7" width="1342" height="24.65"/>
            </clipPath>
<clipPath id="terminal-1511736119-line-14">
    <rect x="0" y="343.1" width="1342" height="24.65"/>
            </clipPath>
<clipPath id="terminal-1511736119-line-15">
    <rect x="0" y="367.5" width="1342" height="24.65"/>
            </clipPath>
<clipPath id="terminal-1511736119-line-16">
    <rect x="0" y="391.9" width="1342" height="24.65"/>
            </clipPath>
<clipPath id="terminal-1511736119-line-17">
    <rect x="0" y="416.3" width="1342" height="24.65"/>
            </clipPath>
<clipPath id="terminal-1511736119-line-18">
    <rect x="0" y="440.7" width="1342" height="24.65"/>
            </clipPath>
<clipPath id="terminal-1511736119-line-19">
    <rect x="0" y="465.1" width="1342" height="24.65"/>
            </clipPath>
<clipPath id="terminal-1511736119-line-20">
    <rect x="0" y="489.5" width="1342" height="24.65"/>
            </clipPath>
<clipPath id="terminal-1511736119-line-21">
    <rect x="0" y="513.9" width="1342" height="24.65"/>
            </clipPath>
<clipPath id="terminal-1511736119-line-22">
    <rect x="0" y="538.3" width="1342" height="24.65"/>
            </clipPath>
<clipPath id="terminal-1511736119-line-23">
    <rect x="0" y="562.7" width="1342" height="24.65"/>
            </clipPath>
<clipPath id="terminal-1511736119-line-24">
    <rect x="0" y="587.1" width="1342" height="24.65"/>
            </clipPath>
<clipPath id="terminal-1511736119-line-25">
    <rect x="0" y="611.5" width="1342" height="24.65"/>
            </clipPath>
<clipPath id="terminal-1511736119-line-26">
    <rect x="0" y="635.9" width="1342" height="24.65"/>
            </clipPath>
<clipPath id="terminal-1511736119-line-27">
    <rect x="0" y="660.3" width="1342" height="24.65"/>
            </clipPath>
<clipPath id="terminal-1511736119-line-28">
    <rect x="0" y="684.7" width="1342" height="24.65"/>
            </clipPath>
    </defs>

    <rect fill="#292929" stroke="rgba(255,255,255,0.35)" stroke-width="1" x="1" y="1" width="1358" height="780" rx="8"/><text class="terminal-1511736119-title" fill="#c5c8c6" text-anchor="middle" x="679" y="27">RhineCode</text>
            <g transform="translate(26,22)">
            <circle cx="0" cy="0" r="7" fill="#ff5f57"/>
            <circle cx="22" cy="0" r="7" fill="#febc2e"/>
            <circle cx="44" cy="0" r="7" fill="#28c840"/>
            </g>
        
    <g transform="translate(9, 41)" clip-path="url(#terminal-1511736119-clip-terminal)">
    <rect fill="#121212" x="0" y="1.5" width="12.2" height="24.65" shape-rendering="crispEdges"/><rect fill="#121212" x="12.2" y="1.5" width="1317.6" height="24.65" shape-rendering="crispEdges"/><rect fill="#121212" x="1329.8" y="1.5" width="12.2" height="24.65" shape-rendering="crispEdges"/><rect fill="#121212" x="0" y="25.9" width="12.2" height="24.65" shape-rendering="crispEdges"/><rect fill="#121212" x="12.2" y="25.9" width="12.2" height="24.65" shape-rendering="crispEdges"/><rect fill="#121212" x="24.4" y="25.9" width="402.6" height="24.65" shape-rendering="crispEdges"/><rect fill="#121212" x="427" y="25.9" width="866.2" height="24.65" shape-rendering="crispEdges"/><rect fill="#000000" x="1293.2" y="25.9" width="24.4" height="24.65" shape-rendering="crispEdges"/><rect fill="#121212" x="1317.6" y="25.9" width="12.2" height="24.65" shape-rendering="crispEdges"/><rect fill="#121212" x="1329.8" y="25.9" width="12.2" height="24.65" shape-rendering="crispEdges"/><rect fill="#121212" x="0" y="50.3" width="12.2" height="24.65" shape-rendering="crispEdges"/><rect fill="#121212" x="12.2" y="50.3" width="12.2" height="24.65" shape-rendering="crispEdges"/><rect fill="#121212" x="24.4" y="50.3" width="451.4" height="24.65" shape-rendering="crispEdges"/><rect fill="#121212" x="475.8" y="50.3" width="817.4" height="24.65" shape-rendering="crispEdges"/><rect fill="#000000" x="1293.2" y="50.3" width="24.4" height="24.65" shape-rendering="crispEdges"/><rect fill="#121212" x="1317.6" y="50.3" width="12.2" height="24.65" shape-rendering="crispEdges"/><rect fill="#121212" x="1329.8" y="50.3" width="12.2" height="24.65" shape-rendering="crispEdges"/><rect fill="#121212" x="0" y="74.7" width="12.2" height="24.65" shape-rendering="crispEdges"/><rect fill="#121212" x="12.2" y="74.7" width="12.2" height="24.65" shape-rendering="crispEdges"/><rect fill="#121212" x="24.4" y="74.7" width="1268.8" height="24.65" shape-rendering="crispEdges"/><rect fill="#000000" x="1293.2" y="74.7" width="24.4" height="24.65" shape-rendering="crispEdges"/><rect fill="#121212" x="1317.6" y="74.7" width="12.2" height="24.65" shape-rendering="crispEdges"/><rect fill="#121212" x="1329.8" y="74.7" width="12.2" height="24.65" shape-rendering="crispEdges"/><rect fill="#121212" x="0" y="99.1" width="12.2" height="24.65" shape-rendering="crispEdges"/><rect fill="#121212" x="12.2" y="99.1" width="12.2" height="24.65" shape-rendering="crispEdges"/><rect fill="#121212" x="24.4" y="99.1" width="73.2" height="24.65" shape-rendering="crispEdges"/><rect fill="#121212" x="97.6" y="99.1" width="1195.6" height="24.65" shape-rendering="crispEdges"/><rect fill="#000000" x="1293.2" y="99.1" width="24.4" height="24.65" shape-rendering="crispEdges"/><rect fill="#121212" x="1317.6" y="99.1" width="12.2" height="24.65" shape-rendering="crispEdges"/><rect fill="#121212" x="1329.8" y="99.1" width="12.2" height="24.65" shape-rendering="crispEdges"/><rect fill="#121212" x="0" y="123.5" width="12.2" height="24.65" shape-rendering="crispEdges"/><rect fill="#121212" x="12.2" y="123.5" width="12.2" height="24.65" shape-rendering="crispEdges"/><rect fill="#121212" x="24.4" y="123.5" width="1268.8" height="24.65" shape-rendering="crispEdges"/><rect fill="#003054" x="1293.2" y="123.5" width="24.4" height="24.65" shape-rendering="crispEdges"/><rect fill="#121212" x="1317.6" y="123.5" width="12.2" height="24.65" shape-rendering="crispEdges"/><rect fill="#121212" x="1329.8" y="123.5" width="12.2" height="24.65" shape-rendering="crispEdges"/><rect fill="#121212" x="0" y="147.9" width="12.2" height="24.65" shape-rendering="crispEdges"/><rect fill="#121212" x="12.2" y="147.9" width="12.2" height="24.65" shape-rendering="crispEdges"/><rect fill="#121212" x="24.4" y="147.9" width="1268.8" height="24.65" shape-rendering="crispEdges"/><rect fill="#003054" x="1293.2" y="147.9" width="24.4" height="24.65" shape-rendering="crispEdges"/><rect fill="#121212" x="1317.6" y="147.9" width="12.2" height="24.65" shape-rendering="crispEdges"/><rect fill="#121212" x="1329.8" y="147.9" width="12.2" height="24.65" shape-rendering="crispEdges"/><rect fill="#121212" x="0" y="172.3" width="12.2" height="24.65" shape-rendering="crispEdges"/><rect fill="#121212" x="12.2" y="172.3" width="12.2" height="24.65" shape-rendering="crispEdges"/><rect fill="#121212" x="24.4" y="172.3" width="1000.4" height="24.65" shape-rendering="crispEdges"/><rect fill="#121212" x="1024.8" y="172.3" width="268.4" height="24.65" shape-rendering="crispEdges"/><rect fill="#003054" x="1293.2" y="172.3" width="24.4" height="24.65" shape-rendering="crispEdges"/><rect fill="#121212" x="1317.6" y="172.3" width="12.2" height="24.65" shape-rendering="crispEdges"/><rect fill="#121212" x="1329.8" y="172.3" width="12.2" height="24.65" shape-rendering="crispEdges"/><rect fill="#121212" x="0" y="196.7" width="12.2" height="24.65" shape-rendering="crispEdges"/><rect fill="#121212" x="12.2" y="196.7" width="12.2" height="24.65" shape-rendering="crispEdges"/><rect fill="#121212" x="24.4" y="196.7" width="390.4" height="24.65" shape-rendering="crispEdges"/><rect fill="#121212" x="414.8" y="196.7" width="878.4" height="24.65" shape-rendering="crispEdges"/><rect fill="#003054" x="1293.2" y="196.7" width="24.4" height="24.65" shape-rendering="crispEdges"/><rect fill="#121212" x="1317.6" y="196.7" width="12.2" height="24.65" shape-rendering="crispEdges"/><rect fill="#121212" x="1329.8" y="196.7" width="12.2" height="24.65" shape-rendering="crispEdges"/><rect fill="#121212" x="0" y="221.1" width="12.2" height="24.65" shape-rendering="crispEdges"/><rect fill="#121212" x="12.2" y="221.1" width="12.2" height="24.65" shape-rendering="crispEdges"/><rect fill="#121212" x="24.4" y="221.1" width="1268.8" height="24.65" shape-rendering="crispEdges"/><rect fill="#003054" x="1293.2" y="221.1" width="24.4" height="24.65" shape-rendering="crispEdges"/><rect fill="#121212" x="1317.6" y="221.1" width="12.2" height="24.65" shape-rendering="crispEdges"/><rect fill="#121212" x="1329.8" y="221.1" width="12.2" height="24.65" shape-rendering="crispEdges"/><rect fill="#121212" x="0" y="245.5" width="12.2" height="24.65" shape-rendering="crispEdges"/><rect fill="#121212" x="12.2" y="245.5" width="12.2" height="24.65" shape-rendering="crispEdges"/><rect fill="#121212" x="24.4" y="245.5" width="1024.8" height="24.65" shape-rendering="crispEdges"/><rect fill="#121212" x="1049.2" y="245.5" width="244" height="24.65" shape-rendering="crispEdges"/><rect fill="#003054" x="1293.2" y="245.5" width="24.4" height="24.65" shape-rendering="crispEdges"/><rect fill="#121212" x="1317.6" y="245.5" width="12.2" height="24.65" shape-rendering="crispEdges"/><rect fill="#121212" x="1329.8" y="245.5" width="12.2" height="24.65" shape-rendering="crispEdges"/><rect fill="#121212" x="0" y="269.9" width="12.2" height="24.65" shape-rendering="crispEdges"/><rect fill="#121212" x="12.2" y="269.9" width="12.2" height="24.65" shape-rendering="crispEdges"/><rect fill="#121212" x="24.4" y="269.9" width="390.4" height="24.65" shape-rendering="crispEdges"/><rect fill="#121212" x="414.8" y="269.9" width="878.4" height="24.65" shape-rendering="crispEdges"/><rect fill="#003054" x="1293.2" y="269.9" width="24.4" height="24.65" shape-rendering="crispEdges"/><rect fill="#121212" x="1317.6" y="269.9" width="12.2" height="24.65" shape-rendering="crispEdges"/><rect fill="#121212" x="1329.8" y="269.9" width="12.2" height="24.65" shape-rendering="crispEdges"/><rect fill="#121212" x="0" y="294.3" width="12.2" height="24.65" shape-rendering="crispEdges"/><rect fill="#121212" x="12.2" y="294.3" width="12.2" height="24.65" shape-rendering="crispEdges"/><rect fill="#121212" x="24.4" y="294.3" width="1268.8" height="24.65" shape-rendering="crispEdges"/><rect fill="#003054" x="1293.2" y="294.3" width="24.4" height="24.65" shape-rendering="crispEdges"/><rect fill="#121212" x="1317.6" y="294.3" width="12.2" height="24.65" shape-rendering="crispEdges"/><rect fill="#121212" x="1329.8" y="294.3" width="12.2" height="24.65" shape-rendering="crispEdges"/><rect fill="#121212" x="0" y="318.7" width="12.2" height="24.65" shape-rendering="crispEdges"/><rect fill="#121212" x="12.2" y="318.7" width="12.2" height="24.65" shape-rendering="crispEdges"/><rect fill="#121212" x="24.4" y="318.7" width="73.2" height="24.65" shape-rendering="crispEdges"/><rect fill="#121212" x="97.6" y="318.7" width="1195.6" height="24.65" shape-rendering="crispEdges"/><rect fill="#003054" x="1293.2" y="318.7" width="24.4" height="24.65" shape-rendering="crispEdges"/><rect fill="#121212" x="1317.6" y="318.7" width="12.2" height="24.65" shape-rendering="crispEdges"/><rect fill="#121212" x="1329.8" y="318.7" width="12.2" height="24.65" shape-rendering="crispEdges"/><rect fill="#121212" x="0" y="343.1" width="12.2" height="24.65" shape-rendering="crispEdges"/><rect fill="#121212" x="12.2" y="343.1" width="12.2" height="24.65" shape-rendering="crispEdges"/><rect fill="#121212" x="24.4" y="343.1" width="1268.8" height="24.65" shape-rendering="crispEdges"/><rect fill="#003054" x="1293.2" y="343.1" width="24.4" height="24.65" shape-rendering="crispEdges"/><rect fill="#121212" x="1317.6" y="343.1" width="12.2" height="24.65" shape-rendering="crispEdges"/><rect fill="#121212" x="1329.8" y="343.1" width="12.2" height="24.65" shape-rendering="crispEdges"/><rect fill="#121212" x="0" y="367.5" width="12.2" height="24.65" shape-rendering="crispEdges"/><rect fill="#121212" x="12.2" y="367.5" width="12.2" height="24.65" shape-rendering="crispEdges"/><rect fill="#121212" x="24.4" y="367.5" width="1268.8" height="24.65" shape-rendering="crispEdges"/><rect fill="#003054" x="1293.2" y="367.5" width="24.4" height="24.65" shape-rendering="crispEdges"/><rect fill="#121212" x="1317.6" y="367.5" width="12.2" height="24.65" shape-rendering="crispEdges"/><rect fill="#121212" x="1329.8" y="367.5" width="12.2" height="24.65" shape-rendering="crispEdges"/><rect fill="#121212" x="0" y="391.9" width="12.2" height="24.65" shape-rendering="crispEdges"/><rect fill="#121212" x="12.2" y="391.9" width="12.2" height="24.65" shape-rendering="crispEdges"/><rect fill="#121212" x="24.4" y="391.9" width="805.2" height="24.65" shape-rendering="crispEdges"/><rect fill="#121212" x="829.6" y="391.9" width="463.6" height="24.65" shape-rendering="crispEdges"/><rect fill="#003054" x="1293.2" y="391.9" width="24.4" height="24.65" shape-rendering="crispEdges"/><rect fill="#121212" x="1317.6" y="391.9" width="12.2" height="24.65" shape-rendering="crispEdges"/><rect fill="#121212" x="1329.8" y="391.9" width="12.2" height="24.65" shape-rendering="crispEdges"/><rect fill="#121212" x="0" y="416.3" width="12.2" height="24.65" shape-rendering="crispEdges"/><rect fill="#121212" x="12.2" y="416.3" width="12.2" height="24.65" shape-rendering="crispEdges"/><rect fill="#121212" x="24.4" y="416.3" width="1268.8" height="24.65" shape-rendering="crispEdges"/><rect fill="#000000" x="1293.2" y="416.3" width="24.4" height="24.65" shape-rendering="crispEdges"/><rect fill="#121212" x="1317.6" y="416.3" width="12.2" height="24.65" shape-rendering="crispEdges"/><rect fill="#121212" x="1329.8" y="416.3" width="12.2" height="24.65" shape-rendering="crispEdges"/><rect fill="#121212" x="0" y="440.7" width="12.2" height="24.65" shape-rendering="crispEdges"/><rect fill="#121212" x="12.2" y="440.7" width="1317.6" height="24.65" shape-rendering="crispEdges"/><rect fill="#121212" x="1329.8" y="440.7" width="12.2" height="24.65" shape-rendering="crispEdges"/><rect fill="#121212" x="0" y="465.1" width="1342" height="24.65" shape-rendering="crispEdges"/><rect fill="#121212" x="0" y="489.5" width="12.2" height="24.65" shape-rendering="crispEdges"/><rect fill="#121212" x="12.2" y="489.5" width="622.2" height="24.65" shape-rendering="crispEdges"/><rect fill="#121212" x="634.4" y="489.5" width="695.4" height="24.65" shape-rendering="crispEdges"/><rect fill="#121212" x="1329.8" y="489.5" width="12.2" height="24.65" shape-rendering="crispEdges"/><rect fill="#121212" x="0" y="513.9" width="12.2" height="24.65" shape-rendering="crispEdges"/><rect fill="#121212" x="12.2" y="513.9" width="280.6" height="24.65" shape-rendering="crispEdges"/><rect fill="#121212" x="292.8" y="513.9" width="1037" height="24.65" shape-rendering="crispEdges"/><rect fill="#121212" x="1329.8" y="513.9" width="12.2" height="24.65" shape-rendering="crispEdges"/><rect fill="#121212" x="0" y="538.3" width="12.2" height="24.65" shape-rendering="crispEdges"/><rect fill="#121212" x="12.2" y="538.3" width="622.2" height="24.65" shape-rendering="crispEdges"/><rect fill="#121212" x="634.4" y="538.3" width="695.4" height="24.65" shape-rendering="crispEdges"/><rect fill="#121212" x="1329.8" y="538.3" width="12.2" height="24.65" shape-rendering="crispEdges"/><rect fill="#121212" x="0" y="562.7" width="12.2" height="24.65" shape-rendering="crispEdges"/><rect fill="#121212" x="12.2" y="562.7" width="292.8" height="24.65" shape-rendering="crispEdges"/><rect fill="#121212" x="305" y="562.7" width="1024.8" height="24.65" shape-rendering="crispEdges"/><rect fill="#121212" x="1329.8" y="562.7" width="12.2" height="24.65" shape-rendering="crispEdges"/><rect fill="#121212" x="0" y="587.1" width="12.2" height="24.65" shape-rendering="crispEdges"/><rect fill="#121212" x="12.2" y="587.1" width="158.6" height="24.65" shape-rendering="crispEdges"/><rect fill="#121212" x="170.8" y="587.1" width="1159" height="24.65" shape-rendering="crispEdges"/><rect fill="#121212" x="1329.8" y="587.1" width="12.2" height="24.65" shape-rendering="crispEdges"/><rect fill="#121212" x="0" y="611.5" width="12.2" height="24.65" shape-rendering="crispEdges"/><rect fill="#121212" x="12.2" y="611.5" width="12.2" height="24.65" shape-rendering="crispEdges"/><rect fill="#121212" x="24.4" y="611.5" width="97.6" height="24.65" shape-rendering="crispEdges"/><rect fill="#121212" x="122" y="611.5" width="195.2" height="24.65" shape-rendering="crispEdges"/><rect fill="#121212" x="317.2" y="611.5" width="1012.6" height="24.65" shape-rendering="crispEdges"/><rect fill="#121212" x="1329.8" y="611.5" width="12.2" height="24.65" shape-rendering="crispEdges"/><rect fill="#121212" x="0" y="635.9" width="12.2" height="24.65" shape-rendering="crispEdges"/><rect fill="#121212" x="12.2" y="635.9" width="1317.6" height="24.65" shape-rendering="crispEdges"/><rect fill="#121212" x="1329.8" y="635.9" width="12.2" height="24.65" shape-rendering="crispEdges"/><rect fill="#121212" x="0" y="660.3" width="12.2" height="24.65" shape-rendering="crispEdges"/><rect fill="#121212" x="12.2" y="660.3" width="12.2" height="24.65" shape-rendering="crispEdges"/><rect fill="#e0e0e0" x="24.4" y="660.3" width="24.4" height="24.65" shape-rendering="crispEdges"/><rect fill="#121212" x="48.8" y="660.3" width="1049.2" height="24.65" shape-rendering="crispEdges"/><rect fill="#121212" x="1098" y="660.3" width="219.6" height="24.65" shape-rendering="crispEdges"/><rect fill="#121212" x="1317.6" y="660.3" width="12.2" height="24.65" shape-rendering="crispEdges"/><rect fill="#121212" x="1329.8" y="660.3" width="12.2" height="24.65" shape-rendering="crispEdges"/><rect fill="#121212" x="0" y="684.7" width="12.2" height="24.65" shape-rendering="crispEdges"/><rect fill="#121212" x="12.2" y="684.7" width="1317.6" height="24.65" shape-rendering="crispEdges"/><rect fill="#121212" x="1329.8" y="684.7" width="12.2" height="24.65" shape-rendering="crispEdges"/><rect fill="#263e41" x="0" y="709.1" width="280.6" height="24.65" shape-rendering="crispEdges"/><rect fill="#263e41" x="280.6" y="709.1" width="549" height="24.65" shape-rendering="crispEdges"/><rect fill="#263e41" x="829.6" y="709.1" width="73.2" height="24.65" shape-rendering="crispEdges"/><rect fill="#263e41" x="902.8" y="709.1" width="439.2" height="24.65" shape-rendering="crispEdges"/>
    <g class="terminal-1511736119-matrix">
    <text class="terminal-1511736119-r1" x="0" y="20" textLength="12.2" clip-path="url(#terminal-1511736119-line-0)">┌</text><text class="terminal-1511736119-r1" x="12.2" y="20" textLength="1317.6" clip-path="url(#terminal-1511736119-line-0)">────────────────────────────────────────────────────────────────────────────────────────────────────────────</text><text class="terminal-1511736119-r1" x="1329.8" y="20" textLength="12.2" clip-path="url(#terminal-1511736119-line-0)">┐</text><text class="terminal-1511736119-r2" x="1342" y="20" textLength="12.2" clip-path="url(#terminal-1511736119-line-0)">
</text><text class="terminal-1511736119-r1" x="0" y="44.4" textLength="12.2" clip-path="url(#terminal-1511736119-line-1)">│</text><text class="terminal-1511736119-r3" x="24.4" y="44.4" textLength="329.4" clip-path="url(#terminal-1511736119-line-1)">●&#160;TaskCreate(给&#160;shout&#160;加一行注释)</text><text class="terminal-1511736119-r1" x="1329.8" y="44.4" textLength="12.2" clip-path="url(#terminal-1511736119-line-1)">│</text><text class="terminal-1511736119-r2" x="1342" y="44.4" textLength="12.2" clip-path="url(#terminal-1511736119-line-1)">
</text><text class="terminal-1511736119-r1" x="0" y="68.8" textLength="12.2" clip-path="url(#terminal-1511736119-line-2)">│</text><text class="terminal-1511736119-r5" x="24.4" y="68.8" textLength="329.4" clip-path="url(#terminal-1511736119-line-2)">&#160;&#160;⎿&#160;&#160;新建任务&#160;[2]&#160;给&#160;shout&#160;加一行注释</text><text class="terminal-1511736119-r1" x="1329.8" y="68.8" textLength="12.2" clip-path="url(#terminal-1511736119-line-2)">│</text><text class="terminal-1511736119-r2" x="1342" y="68.8" textLength="12.2" clip-path="url(#terminal-1511736119-line-2)">
</text><text class="terminal-1511736119-r1" x="0" y="93.2" textLength="12.2" clip-path="url(#terminal-1511736119-line-3)">│</text><text class="terminal-1511736119-r1" x="1329.8" y="93.2" textLength="12.2" clip-path="url(#terminal-1511736119-line-3)">│</text><text class="terminal-1511736119-r2" x="1342" y="93.2" textLength="12.2" clip-path="url(#terminal-1511736119-line-3)">
</text><text class="terminal-1511736119-r1" x="0" y="117.6" textLength="12.2" clip-path="url(#terminal-1511736119-line-4)">│</text><text class="terminal-1511736119-r6" x="24.4" y="117.6" textLength="73.2" clip-path="url(#terminal-1511736119-line-4)">Rhine&#160;</text><text class="terminal-1511736119-r1" x="1329.8" y="117.6" textLength="12.2" clip-path="url(#terminal-1511736119-line-4)">│</text><text class="terminal-1511736119-r2" x="1342" y="117.6" textLength="12.2" clip-path="url(#terminal-1511736119-line-4)">
</text><text class="terminal-1511736119-r1" x="0" y="142" textLength="12.2" clip-path="url(#terminal-1511736119-line-5)">│</text><text class="terminal-1511736119-r4" x="24.4" y="142" textLength="1159" clip-path="url(#terminal-1511736119-line-5)">清单建好了，派人。&#160;&#160;&#160;&#160;&#160;&#160;&#160;&#160;&#160;&#160;&#160;&#160;&#160;&#160;&#160;&#160;&#160;&#160;&#160;&#160;&#160;&#160;&#160;&#160;&#160;&#160;&#160;&#160;&#160;&#160;&#160;&#160;&#160;&#160;&#160;&#160;&#160;&#160;&#160;&#160;&#160;&#160;&#160;&#160;&#160;&#160;&#160;&#160;&#160;&#160;&#160;&#160;&#160;&#160;&#160;&#160;&#160;&#160;&#160;&#160;&#160;&#160;&#160;&#160;&#160;&#160;&#160;&#160;&#160;&#160;&#160;&#160;&#160;&#160;&#160;&#160;&#160;&#160;&#160;&#160;&#160;&#160;&#160;&#160;&#160;&#160;</text><text class="terminal-1511736119-r1" x="1329.8" y="142" textLength="12.2" clip-path="url(#terminal-1511736119-line-5)">│</text><text class="terminal-1511736119-r2" x="1342" y="142" textLength="12.2" clip-path="url(#terminal-1511736119-line-5)">
</text><text class="terminal-1511736119-r1" x="0" y="166.4" textLength="12.2" clip-path="url(#terminal-1511736119-line-6)">│</text><text class="terminal-1511736119-r1" x="1329.8" y="166.4" textLength="12.2" clip-path="url(#terminal-1511736119-line-6)">│</text><text class="terminal-1511736119-r2" x="1342" y="166.4" textLength="12.2" clip-path="url(#terminal-1511736119-line-6)">
</text><text class="terminal-1511736119-r1" x="0" y="190.8" textLength="12.2" clip-path="url(#terminal-1511736119-line-7)">│</text><text class="terminal-1511736119-r3" x="24.4" y="190.8" textLength="695.4" clip-path="url(#terminal-1511736119-line-7)">●&#160;worker(认领「把&#160;greet&#160;改成中文」那条，改完把状态改成&#160;completed，然后告诉&#160;main。)</text><text class="terminal-1511736119-r1" x="1329.8" y="190.8" textLength="12.2" clip-path="url(#terminal-1511736119-line-7)">│</text><text class="terminal-1511736119-r2" x="1342" y="190.8" textLength="12.2" clip-path="url(#terminal-1511736119-line-7)">
</text><text class="terminal-1511736119-r1" x="0" y="215.2" textLength="12.2" clip-path="url(#terminal-1511736119-line-8)">│</text><text class="terminal-1511736119-r5" x="24.4" y="215.2" textLength="341.6" clip-path="url(#terminal-1511736119-line-8)">&#160;&#160;⎿&#160;&#160;委派&#160;worker&#160;·&#160;完成&#160;[b1e3bb]</text><text class="terminal-1511736119-r1" x="1329.8" y="215.2" textLength="12.2" clip-path="url(#terminal-1511736119-line-8)">│</text><text class="terminal-1511736119-r2" x="1342" y="215.2" textLength="12.2" clip-path="url(#terminal-1511736119-line-8)">
</text><text class="terminal-1511736119-r1" x="0" y="239.6" textLength="12.2" clip-path="url(#terminal-1511736119-line-9)">│</text><text class="terminal-1511736119-r1" x="1329.8" y="239.6" textLength="12.2" clip-path="url(#terminal-1511736119-line-9)">│</text><text class="terminal-1511736119-r2" x="1342" y="239.6" textLength="12.2" clip-path="url(#terminal-1511736119-line-9)">
</text><text class="terminal-1511736119-r1" x="0" y="264" textLength="12.2" clip-path="url(#terminal-1511736119-line-10)">│</text><text class="terminal-1511736119-r3" x="24.4" y="264" textLength="707.6" clip-path="url(#terminal-1511736119-line-10)">●&#160;worker(认领「给&#160;shout&#160;加一行注释」那条，改完把状态改成&#160;completed，然后告诉&#160;main。)</text><text class="terminal-1511736119-r1" x="1329.8" y="264" textLength="12.2" clip-path="url(#terminal-1511736119-line-10)">│</text><text class="terminal-1511736119-r2" x="1342" y="264" textLength="12.2" clip-path="url(#terminal-1511736119-line-10)">
</text><text class="terminal-1511736119-r1" x="0" y="288.4" textLength="12.2" clip-path="url(#terminal-1511736119-line-11)">│</text><text class="terminal-1511736119-r5" x="24.4" y="288.4" textLength="341.6" clip-path="url(#terminal-1511736119-line-11)">&#160;&#160;⎿&#160;&#160;委派&#160;worker&#160;·&#160;完成&#160;[6b5c44]</text><text class="terminal-1511736119-r1" x="1329.8" y="288.4" textLength="12.2" clip-path="url(#terminal-1511736119-line-11)">│</text><text class="terminal-1511736119-r2" x="1342" y="288.4" textLength="12.2" clip-path="url(#terminal-1511736119-line-11)">
</text><text class="terminal-1511736119-r1" x="0" y="312.8" textLength="12.2" clip-path="url(#terminal-1511736119-line-12)">│</text><text class="terminal-1511736119-r1" x="1329.8" y="312.8" textLength="12.2" clip-path="url(#terminal-1511736119-line-12)">│</text><text class="terminal-1511736119-r2" x="1342" y="312.8" textLength="12.2" clip-path="url(#terminal-1511736119-line-12)">
</text><text class="terminal-1511736119-r1" x="0" y="337.2" textLength="12.2" clip-path="url(#terminal-1511736119-line-13)">│</text><text class="terminal-1511736119-r6" x="24.4" y="337.2" textLength="73.2" clip-path="url(#terminal-1511736119-line-13)">Rhine&#160;</text><text class="terminal-1511736119-r1" x="1329.8" y="337.2" textLength="12.2" clip-path="url(#terminal-1511736119-line-13)">│</text><text class="terminal-1511736119-r2" x="1342" y="337.2" textLength="12.2" clip-path="url(#terminal-1511736119-line-13)">
</text><text class="terminal-1511736119-r1" x="0" y="361.6" textLength="12.2" clip-path="url(#terminal-1511736119-line-14)">│</text><text class="terminal-1511736119-r4" x="24.4" y="361.6" textLength="1146.8" clip-path="url(#terminal-1511736119-line-14)">两条都完成了，收工。&#160;&#160;&#160;&#160;&#160;&#160;&#160;&#160;&#160;&#160;&#160;&#160;&#160;&#160;&#160;&#160;&#160;&#160;&#160;&#160;&#160;&#160;&#160;&#160;&#160;&#160;&#160;&#160;&#160;&#160;&#160;&#160;&#160;&#160;&#160;&#160;&#160;&#160;&#160;&#160;&#160;&#160;&#160;&#160;&#160;&#160;&#160;&#160;&#160;&#160;&#160;&#160;&#160;&#160;&#160;&#160;&#160;&#160;&#160;&#160;&#160;&#160;&#160;&#160;&#160;&#160;&#160;&#160;&#160;&#160;&#160;&#160;&#160;&#160;&#160;&#160;&#160;&#160;&#160;&#160;&#160;&#160;&#160;&#160;</text><text class="terminal-1511736119-r1" x="1329.8" y="361.6" textLength="12.2" clip-path="url(#terminal-1511736119-line-14)">│</text><text class="terminal-1511736119-r2" x="1342" y="361.6" textLength="12.2" clip-path="url(#terminal-1511736119-line-14)">
</text><text class="terminal-1511736119-r1" x="0" y="386" textLength="12.2" clip-path="url(#terminal-1511736119-line-15)">│</text><text class="terminal-1511736119-r1" x="1329.8" y="386" textLength="12.2" clip-path="url(#terminal-1511736119-line-15)">│</text><text class="terminal-1511736119-r2" x="1342" y="386" textLength="12.2" clip-path="url(#terminal-1511736119-line-15)">
</text><text class="terminal-1511736119-r1" x="0" y="410.4" textLength="12.2" clip-path="url(#terminal-1511736119-line-16)">│</text><text class="terminal-1511736119-r4" x="24.4" y="410.4" textLength="646.6" clip-path="url(#terminal-1511736119-line-16)">等待子&#160;Agent&#160;完成：worker[b1e3bb]、worker[6b5c44]（按&#160;Esc&#160;可取消）</text><text class="terminal-1511736119-r8" x="1293.2" y="410.4" textLength="24.4" clip-path="url(#terminal-1511736119-line-16)">▃▃</text><text class="terminal-1511736119-r1" x="1329.8" y="410.4" textLength="12.2" clip-path="url(#terminal-1511736119-line-16)">│</text><text class="terminal-1511736119-r2" x="1342" y="410.4" textLength="12.2" clip-path="url(#terminal-1511736119-line-16)">
</text><text class="terminal-1511736119-r1" x="0" y="434.8" textLength="12.2" clip-path="url(#terminal-1511736119-line-17)">│</text><text class="terminal-1511736119-r1" x="1329.8" y="434.8" textLength="12.2" clip-path="url(#terminal-1511736119-line-17)">│</text><text class="terminal-1511736119-r2" x="1342" y="434.8" textLength="12.2" clip-path="url(#terminal-1511736119-line-17)">
</text><text class="terminal-1511736119-r1" x="0" y="459.2" textLength="12.2" clip-path="url(#terminal-1511736119-line-18)">└</text><text class="terminal-1511736119-r1" x="12.2" y="459.2" textLength="1317.6" clip-path="url(#terminal-1511736119-line-18)">────────────────────────────────────────────────────────────────────────────────────────────────────────────</text><text class="terminal-1511736119-r1" x="1329.8" y="459.2" textLength="12.2" clip-path="url(#terminal-1511736119-line-18)">┘</text><text class="terminal-1511736119-r2" x="1342" y="459.2" textLength="12.2" clip-path="url(#terminal-1511736119-line-18)">
</text><text class="terminal-1511736119-r9" x="0" y="483.6" textLength="1342" clip-path="url(#terminal-1511736119-line-19)">▔▔▔▔▔▔▔▔▔▔▔▔▔▔▔▔▔▔▔▔▔▔▔▔▔▔▔▔▔▔▔▔▔▔▔▔▔▔▔▔▔▔▔▔▔▔▔▔▔▔▔▔▔▔▔▔▔▔▔▔▔▔▔▔▔▔▔▔▔▔▔▔▔▔▔▔▔▔▔▔▔▔▔▔▔▔▔▔▔▔▔▔▔▔▔▔▔▔▔▔▔▔▔▔▔▔▔▔▔▔</text><text class="terminal-1511736119-r2" x="1342" y="483.6" textLength="12.2" clip-path="url(#terminal-1511736119-line-19)">
</text><text class="terminal-1511736119-r10" x="12.2" y="508" textLength="549" clip-path="url(#terminal-1511736119-line-20)">●&#160;impl-a(worker)&#160;运行中&#160;(1s&#160;·&#160;↑0&#160;tokens&#160;·&#160;1&#160;次调用)</text><text class="terminal-1511736119-r2" x="1342" y="508" textLength="12.2" clip-path="url(#terminal-1511736119-line-20)">
</text><text class="terminal-1511736119-r5" x="12.2" y="532.4" textLength="280.6" clip-path="url(#terminal-1511736119-line-21)">&#160;&#160;⎿&#160;&#160;Update(src/app.py)</text><text class="terminal-1511736119-r2" x="1342" y="532.4" textLength="12.2" clip-path="url(#terminal-1511736119-line-21)">
</text><text class="terminal-1511736119-r10" x="12.2" y="556.8" textLength="549" clip-path="url(#terminal-1511736119-line-22)">●&#160;impl-b(worker)&#160;运行中&#160;(1s&#160;·&#160;↑0&#160;tokens&#160;·&#160;1&#160;次调用)</text><text class="terminal-1511736119-r2" x="1342" y="556.8" textLength="12.2" clip-path="url(#terminal-1511736119-line-22)">
</text><text class="terminal-1511736119-r5" x="12.2" y="581.2" textLength="292.8" clip-path="url(#terminal-1511736119-line-23)">&#160;&#160;⎿&#160;&#160;Update(src/util.py)</text><text class="terminal-1511736119-r2" x="1342" y="581.2" textLength="12.2" clip-path="url(#terminal-1511736119-line-23)">
</text><text class="terminal-1511736119-r5" x="12.2" y="605.6" textLength="134.2" clip-path="url(#terminal-1511736119-line-24)">&#160;&#160;Ctrl+O&#160;收回</text><text class="terminal-1511736119-r2" x="1342" y="605.6" textLength="12.2" clip-path="url(#terminal-1511736119-line-24)">
</text><text class="terminal-1511736119-r11" x="12.2" y="630" textLength="12.2" clip-path="url(#terminal-1511736119-line-25)">◈</text><text class="terminal-1511736119-r4" x="24.4" y="630" textLength="61" clip-path="url(#terminal-1511736119-line-25)">&#160;处理中…</text><text class="terminal-1511736119-r5" x="122" y="630" textLength="170.8" clip-path="url(#terminal-1511736119-line-25)">&#160;(4s&#160;·&#160;esc&#160;中断)</text><text class="terminal-1511736119-r2" x="1342" y="630" textLength="12.2" clip-path="url(#terminal-1511736119-line-25)">
</text><text class="terminal-1511736119-r1" x="0" y="654.4" textLength="12.2" clip-path="url(#terminal-1511736119-line-26)">┌</text><text class="terminal-1511736119-r1" x="12.2" y="654.4" textLength="1317.6" clip-path="url(#terminal-1511736119-line-26)">────────────────────────────────────────────────────────────────────────────────────────────────────────────</text><text class="terminal-1511736119-r1" x="1329.8" y="654.4" textLength="12.2" clip-path="url(#terminal-1511736119-line-26)">┐</text><text class="terminal-1511736119-r2" x="1342" y="654.4" textLength="12.2" clip-path="url(#terminal-1511736119-line-26)">
</text><text class="terminal-1511736119-r1" x="0" y="678.8" textLength="12.2" clip-path="url(#terminal-1511736119-line-27)">│</text><text class="terminal-1511736119-r7" x="24.4" y="678.8" textLength="12.2" clip-path="url(#terminal-1511736119-line-27)">输</text><text class="terminal-1511736119-r12" x="48.8" y="678.8" textLength="683.2" clip-path="url(#terminal-1511736119-line-27)">入消息，/&#160;查看命令，Tab&#160;补全，Ctrl+O&#160;展开详情，运行中按&#160;Esc&#160;取消，连按两次&#160;Ctrl+C&#160;退出</text><text class="terminal-1511736119-r1" x="1329.8" y="678.8" textLength="12.2" clip-path="url(#terminal-1511736119-line-27)">│</text><text class="terminal-1511736119-r2" x="1342" y="678.8" textLength="12.2" clip-path="url(#terminal-1511736119-line-27)">
</text><text class="terminal-1511736119-r1" x="0" y="703.2" textLength="12.2" clip-path="url(#terminal-1511736119-line-28)">└</text><text class="terminal-1511736119-r1" x="12.2" y="703.2" textLength="1317.6" clip-path="url(#terminal-1511736119-line-28)">────────────────────────────────────────────────────────────────────────────────────────────────────────────</text><text class="terminal-1511736119-r1" x="1329.8" y="703.2" textLength="12.2" clip-path="url(#terminal-1511736119-line-28)">┘</text><text class="terminal-1511736119-r2" x="1342" y="703.2" textLength="12.2" clip-path="url(#terminal-1511736119-line-28)">
</text><text class="terminal-1511736119-r13" x="280.6" y="727.6" textLength="463.6" clip-path="url(#terminal-1511736119-line-29)">&#160;[deepseek]&#160;deepseek-chat&#160;|&#160;思考模式：关闭&#160;|&#160;</text><text class="terminal-1511736119-r14" x="829.6" y="727.6" textLength="73.2" clip-path="url(#terminal-1511736119-line-29)">[AUTO]</text><text class="terminal-1511736119-r13" x="902.8" y="727.6" textLength="378.2" clip-path="url(#terminal-1511736119-line-29)">&#160;|&#160;上下文：1%&#160;·&#160;392/64K&#160;|&#160;子Agent:2&#160;</text>
    </g>
    </g>
</svg>
